<?xml version="1.0" standalone="no"?>
<!DOCTYPE svg PUBLIC "-//W3C//DTD SVG 20010904//EN"
 "http://www.w3.org/TR/2001/REC-SVG-20010904/DTD/svg10.dtd">
<svg version="1.0" xmlns="http://www.w3.org/2000/svg"
 width="600.000000pt" height="600.000000pt" viewBox="0 0 600.000000 600.000000"
 preserveAspectRatio="xMidYMid meet">

<g transform="translate(0.000000,600.000000) scale(0.100000,-0.100000)"
fill="#000000" stroke="none">
<path d="M1250 4000 l0 -1500 1750 0 1750 0 0 1500 0 1500 -1750 0 -1750 0 0
-1500z m3360 223 c-1 -976 -2 -1096 -16 -1078 -8 11 -137 216 -287 457 -149
240 -275 436 -279 435 -3 -1 -158 -179 -344 -395 -185 -216 -341 -389 -345
-385 -4 4 -114 190 -245 413 -421 718 -655 1115 -664 1123 -4 5 -238 -255
-519 -577 -282 -322 -514 -586 -517 -586 -2 0 -4 380 -4 845 l0 845 1610 0
1610 0 0 -1097z"/>
<path d="M3677 5046 c-53 -19 -100 -53 -126 -92 -50 -73 -61 -138 -36 -220 50
-169 262 -230 396 -115 149 127 100 371 -85 426 -60 18 -99 18 -149 1z"/>
<path d="M1250 1705 l0 -285 55 0 55 0 2 181 3 182 111 -179 110 -179 57 -3
57 -3 0 286 0 285 -50 0 -50 0 0 -186 c0 -102 -4 -183 -8 -180 -4 3 -57 86
-118 185 l-109 180 -57 1 -58 0 0 -285z"/>
<path d="M2532 1943 l3 -48 53 -3 52 -3 0 50 0 51 -56 0 -55 0 3 -47z"/>
<path d="M1914 1821 c-147 -67 -151 -312 -7 -382 57 -28 151 -31 198 -7 42 22
85 67 101 105 18 42 18 142 -1 185 -15 38 -73 94 -112 109 -41 15 -135 10
-179 -10z m169 -102 c22 -24 27 -38 27 -84 0 -66 -15 -102 -51 -121 -36 -18
-69 -18 -97 2 -74 52 -68 195 11 230 42 18 76 10 110 -27z"/>
<path d="M2887 1815 c-36 -25 -37 -25 -37 -5 0 17 -6 20 -50 20 l-50 0 0 -206
0 -205 53 3 52 3 5 148 c5 143 6 150 29 168 34 27 82 22 98 -11 8 -17 13 -73
13 -168 l0 -143 53 3 52 3 5 148 c5 141 6 150 29 168 13 10 36 19 51 19 49 0
55 -19 58 -187 l4 -153 49 0 49 0 0 175 0 175 -28 31 c-24 27 -37 33 -84 37
-56 4 -101 -10 -127 -42 -12 -14 -17 -13 -48 14 -46 41 -120 42 -176 5z"/>
<path d="M3523 1825 c-32 -14 -76 -71 -70 -90 2 -5 23 -13 47 -17 38 -7 45 -5
62 17 36 46 134 27 126 -25 -3 -21 -14 -26 -98 -46 -117 -29 -150 -57 -150
-128 0 -107 123 -159 226 -95 39 24 40 24 47 -1 4 -17 14 -20 57 -20 46 0 51
2 44 18 -4 9 -10 87 -13 172 -4 92 -11 164 -18 176 -20 36 -74 54 -155 54 -40
-1 -88 -7 -105 -15z m167 -249 c0 -36 -5 -48 -26 -65 -45 -36 -104 -23 -118
25 -8 28 20 52 81 69 26 7 51 14 56 14 4 1 7 -19 7 -43z"/>
<path d="M3969 1817 c-55 -37 -80 -94 -81 -179 0 -86 12 -121 54 -165 58 -60
131 -66 203 -17 l38 25 -5 -57 c-6 -69 -22 -84 -89 -84 -35 0 -50 5 -60 20
-10 14 -30 22 -71 26 -57 7 -58 6 -58 -19 0 -35 43 -83 88 -98 59 -20 173 -16
218 7 71 38 79 66 82 327 l4 227 -51 0 c-44 0 -51 -3 -51 -20 0 -25 -2 -25
-46 5 -50 34 -127 35 -175 2z m162 -67 c28 -16 49 -63 49 -115 0 -79 -36 -125
-98 -125 -88 0 -120 178 -43 237 20 15 66 16 92 3z"/>
<path d="M4475 1828 c-39 -21 -85 -72 -97 -107 -6 -20 -12 -66 -11 -102 0
-115 60 -190 162 -204 86 -12 164 23 197 87 8 16 14 31 12 33 -2 1 -26 5 -55
9 -46 6 -52 4 -58 -14 -8 -26 -48 -42 -81 -34 -31 8 -64 49 -64 80 l0 24 136
0 137 0 -6 52 c-15 122 -82 188 -192 188 -33 -1 -69 -6 -80 -12z m140 -93 c14
-13 25 -36 25 -50 0 -25 -1 -25 -80 -25 -79 0 -80 0 -80 25 0 36 42 75 80 75
19 0 40 -9 55 -25z"/>
<path d="M2532 1628 l3 -203 53 -3 52 -3 0 205 0 206 -55 0 -55 0 2 -202z"/>
<path d="M2680 1085 l0 -55 60 0 60 0 0 55 0 55 -60 0 -60 0 0 -55z"/>
<path d="M2920 830 l0 -310 60 0 60 0 0 310 0 310 -60 0 -60 0 0 -310z"/>
<path d="M3640 830 l0 -310 55 0 55 0 0 32 0 32 28 -26 c39 -37 65 -48 112
-48 55 0 115 32 145 78 52 79 54 228 5 308 -55 88 -186 106 -262 37 -17 -15
-18 -11 -18 95 l0 112 -60 0 -60 0 0 -310z m259 45 c68 -34 80 -187 21 -247
-38 -37 -79 -37 -122 1 -31 28 -33 33 -36 110 l-4 81 35 35 c38 38 63 43 106
20z"/>
<path d="M4177 1133 c-4 -3 -7 -143 -7 -310 l0 -303 60 0 60 0 0 310 0 310
-53 0 c-30 0 -57 -3 -60 -7z"/>
<path d="M1328 967 c-26 -8 -54 -20 -63 -27 -20 -17 -59 -90 -48 -90 5 -1 28
-5 52 -9 42 -8 47 -7 73 21 25 27 33 30 69 25 48 -6 69 -22 69 -52 0 -27 -2
-28 -116 -55 -47 -11 -99 -29 -114 -40 -76 -54 -60 -180 28 -217 50 -21 133
-13 173 16 30 23 49 21 49 -5 0 -11 14 -14 60 -14 l60 0 -12 28 c-6 15 -12 97
-13 184 -2 173 -8 194 -65 223 -42 22 -145 28 -202 12z m152 -276 c0 -51 -32
-90 -81 -97 -43 -7 -79 20 -79 60 0 31 20 46 83 62 77 18 77 18 77 -25z"/>
<path d="M2303 971 c-46 -12 -81 -37 -103 -74 -11 -18 -20 -35 -20 -39 0 -6
101 -31 105 -26 1 2 7 13 14 25 14 27 72 40 107 24 30 -13 51 -61 32 -72 -7
-5 -38 -13 -68 -19 -108 -22 -134 -32 -167 -65 -29 -29 -33 -40 -33 -84 0 -44
5 -56 33 -88 29 -31 41 -37 89 -41 51 -4 89 7 159 45 4 2 9 -5 12 -17 4 -17
13 -20 62 -20 51 0 56 2 49 18 -4 9 -10 94 -13 187 -7 185 -12 204 -66 230
-38 17 -149 27 -192 16z m147 -258 c0 -10 -5 -35 -11 -55 -11 -41 -48 -68 -93
-68 -25 0 -66 41 -66 65 0 21 38 48 87 61 67 18 83 17 83 -3z"/>
<path d="M3258 967 c-26 -8 -54 -20 -63 -27 -20 -17 -59 -90 -48 -90 5 -1 28
-5 52 -9 42 -8 47 -7 72 20 46 49 134 32 134 -26 0 -28 -1 -29 -106 -54 -58
-15 -114 -33 -123 -40 -26 -22 -46 -66 -46 -103 0 -108 131 -163 244 -103 47
25 48 25 53 5 5 -17 14 -20 64 -20 l59 0 -12 28 c-6 15 -13 99 -15 187 -5 173
-11 193 -62 219 -41 22 -147 28 -203 13z m152 -276 c0 -23 -8 -48 -20 -64 -44
-56 -140 -40 -140 22 0 36 18 51 83 67 77 18 77 18 77 -25z"/>
<path d="M4533 970 c-47 -11 -100 -54 -125 -103 -33 -61 -32 -194 0 -254 32
-62 86 -94 167 -100 87 -8 146 15 186 70 16 22 29 43 29 48 0 4 -13 10 -30 13
-16 3 -43 9 -60 12 -22 4 -30 2 -30 -9 0 -38 -75 -61 -121 -37 -21 12 -49 60
-49 85 0 13 21 15 150 15 l150 0 0 33 c0 18 -7 58 -16 88 -32 109 -136 167
-251 139z m125 -116 c12 -14 22 -36 22 -50 0 -24 -1 -24 -90 -24 -49 0 -90 4
-90 9 0 4 5 22 11 40 22 63 102 77 147 25z"/>
<path d="M1660 963 c1 -4 40 -105 89 -223 l87 -215 55 -3 54 -3 82 208 c45
115 85 216 89 226 5 15 -1 17 -53 17 l-60 0 -46 -123 c-25 -68 -49 -135 -52
-150 -7 -27 -25 -38 -25 -14 0 7 -22 73 -49 147 l-49 135 -61 3 c-34 2 -61 -1
-61 -5z"/>
<path d="M2680 745 l0 -225 60 0 60 0 -2 223 -3 222 -57 3 -58 3 0 -226z"/>
</g>
</svg>
